#!OML:ASF \\sashay\E\Suitcase\Project 1\Capture day 1\Session 1\Male1.ASF
:FULLY-SPECIFIED
:DEGREES
593
root 0.659758 17.0847 9.39788 3.13139 -2.2183 -6.61935
lowerback 5.17924 0.873094 4.70533
upperback 1.32684 1.48907 4.48242
thorax -1.53721 0.730857 1.88636
lowerneck -12.0253 -1.7762 -7.15166
upperneck 14.7524 -1.81973 4.52481
head 6.57798 -0.902034 2.46275
rclavicle 5.76476e-015 1.59028e-015
rhumerus -50.9888 -38.444 -45.3616
rradius 10.1143
rwrist 28.7277
rhand -12.7332 10.4449
rfingers 7.12502
rthumb 13.3504 -19.1074
lclavicle 5.76476e-015 1.59028e-015
lhumerus -38.4647 3.99274 85.3801
lradius 38.7215
lwrist -1.79046
lhand -3.43347 42.0709
lfingers 7.12502
lthumb 22.2979 70.8044
rfemur -1.81596 7.55052 33.854
rtibia 20.3494
rfoot -16.5633 -8.01506
rtoes 12.1248
lfemur -31.837 -0.530984 -12.1629
ltibia 50.5781
lfoot -15.8355 3.43616
ltoes -21.8279
594
root 0.664531 17.0933 9.51845 3.16501 -2.32077 -6.65019
lowerback 4.68653 0.934358 4.92194
upperback 1.61312 1.52055 4.41208
thorax -0.958155 0.756405 1.7022
lowerneck -12.4859 -1.69235 -7.17741
upperneck 14.669 -1.68082 4.61713
head 6.62317 -0.822947 2.50839
rclavicle -1.35174e-014 -1.03368e-014
rhumerus -49.8162 -39.1042 -46.2578
rradius 9.94277
rwrist 28.6416
rhand -12.7958 9.70833
rfingers 7.12502
rthumb 13.2901 -19.8479
lclavicle -1.35174e-014 -1.03368e-014
lhumerus -37.6086 3.90055 85.5387
lradius 38.165
lwrist -2.17498
lhand -3.01023 42.4499
lfingers 7.12502
lthumb 22.7041 71.1342
rfemur -1.01723 7.42607 33.8741
rtibia 19.6713
rfoot -16.4757 -7.90837
rtoes 11.8704
lfemur -32.022 -0.673601 -12.2828
ltibia 48.7106
lfoot -15.6796 3.5841
ltoes -21.0816
595
root 0.673815 17.1064 9.63025 3.34872 -2.46792 -6.07455
lowerback 4.89311 0.969427 4.37306
upperback 1.28102 1.57792 4.29422
thorax -1.42817 0.777255 1.87561
lowerneck -12.4811 -1.76928 -7.50716
upperneck 14.5885 -1.7432 4.755
head 6.60489 -0.859233 2.60082
rclavicle 2.25621e-014 2.78299e-014
rhumerus -49.4174 -38.8706 -46.5054
rradius 9.93894
rwrist 28.3719
rhand -12.8149 10.0266
rfingers 7.12502
rthumb 13.2717 -19.5308
lclavicle 2.25621e-014 2.78299e-014
lhumerus -38.1029 3.82119 85.7779
lradius 38.3192
lwrist -2.20861
lhand -2.67107 42.6246
lfingers 7.12502
lthumb 23.0296 71.2686
rfemur -0.49039 7.18161 33.1324
rtibia 19.0418
rfoot -16.6133 -7.50554
rtoes 12.0992
lfemur -32.3766 -0.979924 -13.0921
ltibia 46.7309
lfoot -15.2051 3.91118
ltoes -21.2606
596
root 0.666036 17.0923 9.75081 3.26335 -2.81876 -6.66665
lowerback 5.06334 1.08842 4.84383
upperback 1.20873 1.77964 4.41414
thorax -1.58755 0.873543 1.7213
lowerneck -12.4348 -1.78895 -7.24728
upperneck 14.5324 -1.86843 5.02521
head 6.58579 -0.882853 2.63366
rclavicle -3.29983e-014 -4.37326e-014
rhumerus -48.8775 -39.0142 -47.05
rradius 9.73252
rwrist 28.4013
rhand -13.5452 10.1707
rfingers 7.12502
rthumb 12.5676 -19.4313
lclavicle -3.29983e-014 -4.37326e-014
lhumerus -38.2287 3.92242 85.7124
lradius 38.2982
lwrist -3.20629
lhand -1.84387 43.0658
lfingers 7.12502
lthumb 23.8231 71.6087
rfemur 0.547203 7.71428 33.9168
rtibia 18.2593
rfoot -16.4317 -7.71219
rtoes 11.2193
lfemur -32.4691 -0.787127 -12.491
ltibia 44.8158
lfoot -15.6976 3.5265
ltoes -21.4802
597
root 0.672983 17.0876 9.84752 3.52797 -2.9459 -6.68961
lowerback 4.78463 1.06781 4.8915
upperback 1.29777 1.72609 4.4447
thorax -1.33936 0.850881 1.73624
lowerneck -12.8113 -1.78044 -7.53577
upperneck 14.0949 -1.73674 4.87448
head 6.50464 -0.839469 2.63998
rclavicle -1.46107e-014 -4.77083e-015
rhumerus -47.5153 -39.1721 -47.9703
rradius 9.49609
rwrist 28.4726
rhand -13.5165 10.0714
rfingers 7.12502
rthumb 12.5953 -19.5289
lclavicle -1.46107e-014 -4.77083e-015
lhumerus -37.8634 4.017 85.9041
lradius 38.182
lwrist -3.18086
lhand -2.0193 42.782
lfingers 7.12502
lthumb 23.6549 71.3467
rfemur 0.968494 7.59887 33.8486
rtibia 17.5703
rfoot -16.3263 -7.35318
rtoes 12.3835
lfemur -32.9321 -0.961699 -12.6109
ltibia 42.8017
lfoot -14.4045 3.83037
ltoes -22.1597
